# xmcd CD database file
#
# Track frame offsets:
#	150
#	22962
#	47315
#	73657
#	92967
#	115445
#	140427
#	157285
#	188062
#	207880
#	244372
#
# Disc length: 4440 seconds
#
# Revision: 0
# Processed by: cddbd v1.5.1PL0 Copyright (c) Steve Scherf et al.
# Submitted via: CDex 1.51
#
DISCID=9d11560b
DTITLE=bloodthirsty butchers - 荒野ニオケルbloodthirsty butchers
DYEAR=2003
DGENRE=Rock
TTITLE0=(方位)
TTITLE1=lucky man
TTITLE2=dorama
TTITLE3=サラバ世界君主
TTITLE4=悲しみをぶっとばせ！
TTITLE5=影を慕いて
TTITLE6=goblin
TTITLE7=real/melodic
TTITLE8=アカシア
TTITLE9=地獄のロッカー
TTITLE10=CCCD
EXTD=YEAR: 2003.01/29
EXTT0=
EXTT1=
EXTT2=
EXTT3=
EXTT4=
EXTT5=
EXTT6=
EXTT7=
EXTT8=
EXTT9=
EXTT10=
PLAYORDER=
